<?xml version="1.0" encoding="UTF-8"?>
<svg version="1.1" xmlns="http://www.w3.org/2000/svg" width="500" height="500">
<path d="M0 0 C165 0 330 0 500 0 C500 165 500 330 500 500 C335 500 170 500 0 500 C0 335 0 170 0 0 Z " fill="#FEFEFE" transform="translate(0,0)"/>
<path d="M0 0 C0.89227798 0.00045319 1.78455597 0.00090637 2.70387268 0.00137329 C3.63910263 -0.00198532 4.57433258 -0.00534393 5.53790283 -0.00880432 C8.65525112 -0.0183619 11.77254577 -0.02026112 14.88990784 -0.02133179 C17.06256635 -0.02454568 19.23522464 -0.02790985 21.40788269 -0.03141785 C25.98295084 -0.0374243 30.55800008 -0.03925666 35.1330719 -0.03866577 C40.94586425 -0.03856512 46.75853177 -0.05210929 52.57129478 -0.06943798 C57.07227614 -0.08066937 61.57322864 -0.08258145 66.07422256 -0.08205605 C68.21324206 -0.08322362 70.35226261 -0.08757527 72.49126816 -0.09538841 C91.38196838 -0.15782169 109.62130054 0.68070456 127.80397034 6.14663696 C128.69745178 6.41218384 129.59093323 6.67773071 130.51148987 6.95132446 C159.01866086 15.56589327 185.19105927 29.28865073 205.80397034 51.14663696 C206.60447815 51.94714478 207.40498596 52.74765259 208.22975159 53.57241821 C231.35124798 76.69391461 246.38120544 105.3740613 253.80397034 137.14663696 C254.12301331 138.41700806 254.12301331 138.41700806 254.44850159 139.71304321 C257.06256178 150.52660155 257.01893784 161.51428766 257.04420471 172.57485962 C257.05384432 175.1134503 257.08491905 177.65120625 257.11647034 180.18960571 C257.22055119 195.93843576 255.03293661 210.78466888 250.30397034 225.83413696 C249.96285217 226.9257312 249.62173401 228.01732544 249.27027893 229.14199829 C240.74695865 255.34997757 226.49903134 277.09822979 207.80397034 297.14663696 C207.07951721 297.93683228 206.35506409 298.72702759 205.60865784 299.54116821 C182.63387457 323.64522049 152.16420969 338.01582084 120.24147034 345.89663696 C119.45224182 346.09539429 118.66301331 346.29415161 117.84986877 346.49893188 C101.72405397 350.28684227 85.72470941 350.37826234 69.26881409 350.12319946 C67.30044159 350.10031555 65.3320573 350.0784239 63.36366272 350.05752563 C56.1561171 349.97418519 48.94880157 349.87181679 41.74147034 349.77163696 C17.51740784 349.46226196 17.51740784 349.46226196 -7.19602966 349.14663696 C-7.19602966 316.80663696 -7.19602966 284.46663696 -7.19602966 251.14663696 C-11.15602966 252.13663696 -11.15602966 252.13663696 -15.19602966 253.14663696 C-18.19602966 253.27163696 -18.19602966 253.27163696 -20.19602966 253.14663696 C-20.19602966 250.17663696 -20.19602966 247.20663696 -20.19602966 244.14663696 C-15.50482605 242.23835075 -12.27403009 241.05838786 -7.19602966 241.14663696 C-7.19695146 239.910663 -7.19787325 238.67468904 -7.19882298 237.40126133 C-7.22045923 208.09216143 -7.23695934 178.78306333 -7.24709499 149.47395742 C-7.24834577 145.8701403 -7.24964008 142.2663232 -7.2509613 138.6625061 C-7.25122361 137.94502087 -7.25148592 137.22753563 -7.25175618 136.48830842 C-7.25611297 124.85570028 -7.26400057 113.22309706 -7.27318246 101.59049184 C-7.28251875 89.66320643 -7.28808522 77.73592361 -7.29011816 65.8086347 C-7.29136972 59.10554798 -7.29439146 52.40247154 -7.30175972 45.6993885 C-7.30851573 39.39828517 -7.31064748 33.09719769 -7.30913734 26.79609108 C-7.30941386 24.47604028 -7.31142146 22.15598899 -7.31523514 19.83594131 C-7.32016584 16.68334754 -7.31903027 13.53081461 -7.31628418 10.3782196 C-7.31919702 9.44730485 -7.32210986 8.51639011 -7.32511097 7.55726582 C-7.30780314 0.27262902 -7.3041033 0.03860602 0 0 Z " fill="#FCFBFE" transform="translate(137.19602966308594,74.85336303710938)"/>
<path d="M0 0 C0.91712769 -0.00014603 1.83425537 -0.00029205 2.7791748 -0.0004425 C5.82009216 0.00025591 8.86094877 0.00804499 11.90185547 0.01586914 C14.0064999 0.01773357 16.11114477 0.01915736 18.21578979 0.02015686 C23.76260572 0.02398004 29.30939557 0.03380865 34.85620117 0.04486084 C40.51334277 0.05507923 46.17048856 0.0596554 51.82763672 0.06469727 C62.93311694 0.07543108 74.03857779 0.09250513 85.14404297 0.11352539 C85.17349758 3.26715103 85.19099234 6.42074046 85.20654297 9.57446289 C85.21492187 10.45610107 85.22330078 11.33773926 85.23193359 12.24609375 C85.3845614 53.66546402 63.67066809 92.59423212 36.14404297 122.11352539 C35.41958984 122.9037207 34.69513672 123.69391602 33.94873047 124.50805664 C10.93594432 148.65197973 -19.5020055 162.88230431 -51.41845703 170.92602539 C-52.20768555 171.13316162 -52.99691406 171.34029785 -53.81005859 171.55371094 C-62.31928635 173.58677552 -69.73423732 173.57695364 -78.85595703 174.11352539 C-78.85595703 126.59352539 -78.85595703 79.07352539 -78.85595703 30.11352539 C-75.52698596 33.44249646 -74.12243941 36.76001832 -72.29345703 40.98852539 C-66.952488 52.7968674 -60.13258266 63.58308032 -48.16845703 69.42602539 C-41.72933282 70.7624474 -35.36974535 71.32553047 -29.35595703 68.42602539 C-23.20794374 62.7391131 -20.88861948 57.62520687 -20.41845703 49.23852539 C-20.63248109 38.17042408 -24.72460853 26.27141187 -30.85595703 17.11352539 C-23.76875418 20.19148654 -19.13428517 26.65884612 -16.16845703 33.61352539 C-13.45752144 41.273283 -12.10299849 49.27514831 -10.73022461 57.26782227 C-9.23123394 65.81310909 -9.23123394 65.81310909 -4.85595703 73.11352539 C-1.82494443 73.99971128 0.08603505 74.32978372 3.14404297 74.36352539 C3.89935303 74.38962891 4.65466309 74.41573242 5.43286133 74.44262695 C12.50242289 74.48763212 17.91305632 72.35101092 24.14404297 69.11352539 C31.33470445 66.11352539 31.33470445 66.11352539 35.14404297 66.11352539 C37.34940476 70.14070779 38.60064505 73.54898288 39.14404297 78.11352539 C43.10404297 78.44352539 47.06404297 78.77352539 51.14404297 79.11352539 C49.38168708 71.05207132 49.38168708 71.05207132 44.14404297 65.11352539 C32.27823602 61.94343968 20.64306595 63.35612431 9.86669922 68.80102539 C7.14404297 70.11352539 7.14404297 70.11352539 4.14404297 70.11352539 C1.36681719 61.75908391 -1.05797336 53.49957894 -2.79345703 44.86352539 C-4.92801475 34.68207556 -8.09437318 25.31820212 -16.50439453 18.62915039 C-20.1936066 16.2513858 -24.1056308 14.42649206 -28.12158203 12.66821289 C-31.21173419 10.91124066 -32.81852841 8.99503158 -34.85595703 6.11352539 C-34.13939941 5.96729736 -33.4228418 5.82106934 -32.68457031 5.67041016 C-29.44942992 5.00852175 -26.21519084 4.34232895 -22.98095703 3.67602539 C-21.85302734 3.44592773 -20.72509766 3.21583008 -19.56298828 2.97875977 C-18.48662109 2.75639648 -17.41025391 2.5340332 -16.30126953 2.30493164 C-14.80877686 1.99857788 -14.80877686 1.99857788 -13.28613281 1.68603516 C-8.65319503 0.5945906 -4.87588393 -0.02010848 0 0 Z " fill="#8C52FE" transform="translate(308.85595703125,249.886474609375)"/>
<path d="M0 0 C39.57899915 0 81.56201212 18.42724373 109.5625 46.375 C110.71179839 47.58003804 111.85751224 48.78850291 113 50 C113.80050781 50.80050781 114.60101563 51.60101563 115.42578125 52.42578125 C138.54727764 75.54727764 153.5772351 104.22742433 161 136 C161.21269531 136.84691406 161.42539062 137.69382813 161.64453125 138.56640625 C163.85685182 147.71809206 164 156.54195937 164 166 C136.94 166 109.88 166 82 166 C82.99 162.37 83.98 158.74 85 155 C84.91571296 148.67847227 83.91592193 143.12082099 80 138 C72.01366969 131.39118868 64.29420393 131.63421396 54.3515625 132.1328125 C43.58112756 133.33638546 33.7508301 138.54114655 24 143 C22.60203108 138.80609325 24.18301213 136.91351234 26 133 C28.4111524 125.76654281 27.21348839 118.7802326 24 112 C23.51273438 110.91332031 23.02546875 109.82664062 22.5234375 108.70703125 C17.05651598 96.86765407 12.23000657 90.43555847 0 85 C0 56.95 0 28.9 0 0 Z " fill="#8C52FF" transform="translate(230,76)"/>
<path d="M0 0 C30.03 0 60.06 0 91 0 C91.12375 14.1075 91.2475 28.215 91.375 42.75 C91.45693604 49.43008301 91.45693604 49.43008301 91.54052734 56.24511719 C91.56762695 61.68603516 91.56762695 61.68603516 91.57266235 64.23370361 C91.58187224 66.01195277 91.60296813 67.79016459 91.63345337 69.56817627 C91.67734941 72.26323442 91.68343777 74.95600539 91.68115234 77.65136719 C91.70274099 78.44265392 91.72432964 79.23394066 91.74657249 80.04920578 C91.7215271 82.25408936 91.7215271 82.25408936 91 86 C88.07168579 88.39190674 88.07168579 88.39190674 85 90 C83.13877719 92.01702595 83.13877719 92.01702595 81.75 94.25 C81.27046875 94.95640625 80.7909375 95.6628125 80.296875 96.390625 C77.32383262 102.37252954 76.63392636 108.45741308 76.6875 115.0625 C76.69241455 115.7949292 76.6973291 116.5273584 76.70239258 117.28198242 C76.95454266 129.27786078 79.88650461 140.14645445 85 151 C80.51525535 150.49459484 76.59556016 149.61183955 72.30541992 148.1328125 C59.32231244 143.74085501 42.83706839 142.17237848 30 148 C25.96356723 150.95244376 22.86337179 154.32508052 21 159 C20.67 161.31 20.34 163.62 20 166 C13.4 166 6.8 166 0 166 C0 111.22 0 56.44 0 0 Z " fill="#8C52FE" transform="translate(131,76)"/>
<path d="M0 0 C-1.30645844 3.42109815 -2.82077624 6.59421042 -4.5625 9.8125 C-6.88786574 14.43587425 -7.75417454 17.83766538 -8 23 C-8.05027344 23.69609375 -8.10054687 24.3921875 -8.15234375 25.109375 C-8.51544153 33.30086101 -6.76643481 42.08281673 -1.4921875 48.55859375 C2.21920508 52.1436824 5.70941343 53.79091376 10.8671875 54.26171875 C18.71349565 54.07204972 23.59745837 51.63146289 29 46 C30.52441406 44.05213759 31.74701619 42.14051402 33 40 C33.33 40 33.66 40 34 40 C34 76.63 34 113.26 34 151 C3.97 151 -26.06 151 -57 151 C-57 118.33 -57 85.66 -57 52 C-51.72 50.68 -46.44 49.36 -41 48 C-32.94488379 45.28373988 -24.81272991 41.66488383 -19.3046875 34.92578125 C-17.03433806 29.83448864 -16.84554929 24.33771402 -16.27148438 18.8359375 C-15.39120941 11.54371884 -13.92470686 6.42688442 -8.0625 1.5625 C-4.99092094 -0.00463217 -3.37829495 -0.39744646 0 0 Z " fill="#8C52FE" transform="translate(188,273)"/>
<path d="M0 0 C23 0 23 0 30 6 C37.94432044 11.70361467 47.58762461 11.49765412 57 12 C57 12.33 57 12.66 57 13 C56.41992188 13.13535156 55.83984375 13.27070313 55.2421875 13.41015625 C49.90888577 14.87989451 46.73949959 16.64504322 43.19140625 20.890625 C40.27980947 26.04558323 39.71189319 31.70293257 39.125 37.5 C38.25860755 44.4857155 37.43227127 49.06433941 31.8671875 53.82421875 C22.49066984 60.83456189 11.74380999 65 0 65 C0 43.55 0 22.1 0 0 Z " fill="#8C53FE" transform="translate(131,250)"/>
<path d="M0 0 C0.33 0 0.66 0 1 0 C1 54.78 1 109.56 1 166 C7.6 166 14.2 166 21 166 C21.99 168.64 22.98 171.28 24 174 C16.41 174 8.82 174 1 174 C1 195.45 1 216.9 1 239 C21.40070501 234.72585541 21.40070501 234.72585541 36.53125 221.96875 C38.95747257 217.0646831 39.14100765 211.78266808 39.72851562 206.39257812 C40.6180533 199.36575684 42.66599017 195.28214295 47.8125 190.25 C54.52696349 185.51037871 62.03700584 185.49686991 70 185 C69.62488281 185.43570313 69.24976563 185.87140625 68.86328125 186.3203125 C68.35152344 186.91585937 67.83976562 187.51140625 67.3125 188.125 C66.48685547 189.07439453 66.48685547 189.07439453 65.64453125 190.04296875 C64.01128179 191.93808696 64.01128179 191.93808696 62.69921875 193.80078125 C61.5 195.4375 61.5 195.4375 59 198 C56.0625 198.125 56.0625 198.125 53 198 C48.02220667 200.53769856 46.06569225 202.87571371 44 208 C43.1543905 212.39789799 42.73403646 216.84910545 42.27148438 221.30078125 C41.40279991 228.48670362 39.82129489 232.75314402 33.96875 237.4140625 C32.82341996 238.16790032 31.66656327 238.90445681 30.5 239.625 C29.57622559 240.20411133 29.57622559 240.20411133 28.63378906 240.79492188 C19.59096368 246.27175905 11.58000519 247.94199948 1 249 C1 281.67 1 314.34 1 348 C0.67 348 0.34 348 0 348 C0 315.66 0 283.32 0 250 C-3.96 250.99 -3.96 250.99 -8 252 C-11 252.125 -11 252.125 -13 252 C-13 249.03 -13 246.06 -13 243 C-8.06632653 240.99308198 -5.44479395 240 0 240 C0 160.8 0 81.6 0 0 Z " fill="#E9D6D3" transform="translate(130,76)"/>
<path d="M0 0 C0.43828125 0.36351562 0.8765625 0.72703125 1.328125 1.1015625 C5.38282426 4.31565338 9.36769653 6.74659172 14.0625 8.9375 C23.98119037 13.7844167 28.10490173 19.81393902 32 30 C33.44898316 34.91593795 34.61750359 39.87779609 35.75 44.875 C36.05495967 46.17992862 36.36094468 47.48461805 36.66796875 48.7890625 C37.84847258 53.84686556 39.00533397 58.90203987 40 64 C40.80824219 63.66226563 41.61648438 63.32453125 42.44921875 62.9765625 C43.51785156 62.53054688 44.58648437 62.08453125 45.6875 61.625 C46.74324219 61.18414062 47.79898438 60.74328125 48.88671875 60.2890625 C50.42779297 59.65097656 50.42779297 59.65097656 52 59 C52.77214844 58.62101562 53.54429687 58.24203125 54.33984375 57.8515625 C58.19320266 56.61803498 61.85487768 56.71039288 65.875 56.75 C67.04095703 56.73839844 67.04095703 56.73839844 68.23046875 56.7265625 C73.18656361 56.74322164 77.34154107 57.26194553 82 59 C86.01739302 63.44027649 86.60306572 67.24445294 87 73 C83.04 73 79.08 73 75 73 C74.54427083 71.37239583 74.08854167 69.74479167 73.6328125 68.1171875 C72.81766487 65.38996518 71.90922478 62.69711215 71 60 C69.04131782 60.74908848 67.08307614 61.49932878 65.125 62.25 C63.92617188 62.70117188 62.72734375 63.15234375 61.4921875 63.6171875 C58.1262675 64.88923753 58.1262675 64.88923753 55.5078125 66.2578125 C50.06211168 68.95239803 45.17197013 69.38837659 39.1875 69.25 C38.09260254 69.25652588 38.09260254 69.25652588 36.97558594 69.26318359 C33.84240439 69.08206232 31.79801115 68.74710398 29.46533203 66.56323242 C25.4973624 60.91639356 24.60420774 54.49035163 23.5 47.8125 C20.87599731 33.64432274 18.33426484 21.93340065 7 12 C6.01 11.67 5.02 11.34 4 11 C2.17578125 8.93359375 2.17578125 8.93359375 0.3125 6.4375 C-0.31011719 5.61121094 -0.93273437 4.78492188 -1.57421875 3.93359375 C-2.04472656 3.29550781 -2.51523437 2.65742188 -3 2 C-2.01 1.34 -1.02 0.68 0 0 Z " fill="#EAD6CD" transform="translate(273,256)"/>
<path d="M0 0 C0.66 0 1.32 0 2 0 C1.67 48.51 1.34 97.02 1 147 C-1.64 147 -4.28 147 -7 147 C-7.22449925 132.42235692 -7.42534968 117.84454621 -7.59840012 103.26619816 C-7.67930434 96.49651483 -7.76781242 89.72709363 -7.87451172 82.95776367 C-7.97750512 76.4221696 -8.05892433 69.88651078 -8.12732697 63.35046196 C-8.15689282 60.85978154 -8.19362702 58.36917532 -8.2377243 55.87870979 C-8.29836574 52.38399297 -8.3332615 48.8898783 -8.36230469 45.39477539 C-8.38603653 44.37049942 -8.40976837 43.34622345 -8.43421936 42.29090881 C-8.45191002 36.44657444 -7.67029965 32.17340924 -4.97746658 26.95877743 C-2.06441579 21.12121915 -1.55178604 14.4017302 -0.875 8 C-0.78863281 7.22527344 -0.70226562 6.45054687 -0.61328125 5.65234375 C-0.40399448 3.76876279 -0.20129373 1.88445192 0 0 Z " fill="#E9D4CE" transform="translate(229,278)"/>
<path d="M0 0 C32.67 0 65.34 0 99 0 C99 28.38 99 56.76 99 86 C94.545 86.99 94.545 86.99 90 88 C90.33 59.29 90.66 30.58 91 1 C60.97 1 30.94 1 0 1 C0 0.67 0 0.34 0 0 Z " fill="#E7D2D3" transform="translate(131,75)"/>
<path d="M0 0 C0.81013046 0.00916946 1.62026093 0.01833893 2.4549408 0.02778625 C5.12851807 0.06281488 7.80060376 0.12648609 10.47363281 0.19042969 C12.32876877 0.22033215 14.18393437 0.24844549 16.03912354 0.27484131 C20.91887934 0.3490807 25.79785364 0.44762462 30.67706299 0.5512085 C35.65718613 0.652641 40.63766487 0.73112081 45.61816406 0.81152344 C55.38818075 0.97263413 65.15752561 1.1594192 74.92675781 1.36230469 C74.92675781 4.00230469 74.92675781 6.64230469 74.92675781 9.36230469 C44.56675781 9.36230469 14.20675781 9.36230469 -17.07324219 9.36230469 C-15.42324219 7.71230469 -13.77324219 6.06230469 -12.07324219 4.36230469 C-11.47662781 3.60665222 -10.88001343 2.85099976 -10.26531982 2.07244873 C-7.03633188 -0.44663837 -3.91628605 -0.1220126 0 0 Z " fill="#ECD9CC" transform="translate(319.0732421875,240.6376953125)"/>
<path d="M0 0 C0.33 0 0.66 0 1 0 C1 54.78 1 109.56 1 166 C7.6 166 14.2 166 21 166 C21.99 168.64 22.98 171.28 24 174 C16.41 174 8.82 174 1 174 C1 195.45 1 216.9 1 239 C1.66 239.33 2.32 239.66 3 240 C2.01 240 1.02 240 0 240 C0 160.8 0 81.6 0 0 Z " fill="#E2D4FE" transform="translate(130,76)"/>
<path d="M0 0 C6.6 0 13.2 0 20 0 C20.99 2.64 21.98 5.28 23 8 C15.41 8 7.82 8 0 8 C0 5.36 0 2.72 0 0 Z " fill="#ECD9CC" transform="translate(131,242)"/>
<path d="M0 0 C1.11375 0.185625 2.2275 0.37125 3.375 0.5625 C6.82568861 1.31680657 6.82568861 1.31680657 9 0 C9.66 1.32 10.32 2.64 11 4 C10.01 4.495 10.01 4.495 9 5 C9.33 5.66 9.66 6.32 10 7 C9.01 7.33 8.02 7.66 7 8 C7.66 8.33 8.32 8.66 9 9 C8.67 9.99 8.34 10.98 8 12 C5.36 11.34 2.72 10.68 0 10 C1.65 8.68 3.3 7.36 5 6 C4.67 5.01 4.34 4.02 4 3 C3.01 2.67 2.02 2.34 1 2 C0.67 1.34 0.34 0.68 0 0 Z " fill="#EFE7FF" transform="translate(235,186)"/>
<path d="M0 0 C1.2065625 0.2475 1.2065625 0.2475 2.4375 0.5 C4.97658116 1.26597109 4.97658116 1.26597109 7 0 C7.66 2.31 8.32 4.62 9 7 C8.34 7 7.68 7 7 7 C5 5 5 5 4 3 C2.35 3 0.7 3 -1 3 C-1.33 3.66 -1.66 4.32 -2 5 C-1.125 1.125 -1.125 1.125 0 0 Z " fill="#EDE4FF" transform="translate(232,197)"/>
<path d="M0 0 C0.99 0.66 1.98 1.32 3 2 C3.1875 4.625 3.1875 4.625 3 7 C1.68 7.33 0.36 7.66 -1 8 C-1.625 5.125 -1.625 5.125 -2 2 C-1.34 1.34 -0.68 0.68 0 0 Z " fill="#F1E9FF" transform="translate(196,295)"/>
<path d="M0 0 C1.9375 0.8125 1.9375 0.8125 4 2 C4.33 2.99 4.66 3.98 5 5 C4.01 5 3.02 5 2 5 C2 5.66 2 6.32 2 7 C1.34 7 0.68 7 0 7 C-0.38133299 5.0085944 -0.71325582 3.00720923 -1 1 C-0.67 0.67 -0.34 0.34 0 0 Z " fill="#E5D7FE" transform="translate(230,206)"/>
<path d="M0 0 C0.66 1.32 1.32 2.64 2 4 C1.01 4.99 0.02 5.98 -1 7 C-1.66 5.68 -2.32 4.36 -3 3 C-2.01 2.01 -1.02 1.02 0 0 Z " fill="#F1EAFF" transform="translate(196,309)"/>
<path d="M0 0 C1.32 0.66 2.64 1.32 4 2 C3.01 2.495 3.01 2.495 2 3 C2 3.66 2 4.32 2 5 C1.01 5.33 0.02 5.66 -1 6 C-1.33 4.35 -1.66 2.7 -2 1 C-1.67 1.66 -1.34 2.32 -1 3 C-0.67 2.01 -0.34 1.02 0 0 Z " fill="#ECE3FF" transform="translate(232,182)"/>
</svg>
